<svg xmlns="http://www.w3.org/2000/svg" width="369" height="197"><defs><style>.cls-1 { fill: #fff; fill-rule: evenodd; filter: url(#filter); }</style><filter id="filter" width="369" height="197" x="276" y="2409" filterUnits="userSpaceOnUse"><feOffset result="offset" dy="4" in="SourceAlpha"/><feGaussianBlur result="blur" stdDeviation="3.162"/><feFlood result="flood" flood-opacity=".4"/><feComposite result="composite" operator="in" in2="blur"/><feBlend result="blend" in="SourceGraphic"/></filter></defs><path id="Base" d="M15 5h338a6 6 0 0 1 6 6v156a6 6 0 0 1-6 6H15a6 6 0 0 1-6-6V11a6 6 0 0 1 6-6zm173.23 113.9l26.87 26.86a6 6 0 0 1 0 8.48l-26.87 26.87a6 6 0 0 1-8.5 0l-26.86-26.86a6 6 0 0 1 0-8.48l26.87-26.87a6 6 0 0 1 8.5 0z" class="cls-1"/></svg>